<?xml version="1.0" encoding="UTF-8"?>
<svg xmlns="http://www.w3.org/2000/svg" xmlns:xlink="http://www.w3.org/1999/xlink" width="25px" height="22px" viewBox="0 0 24 22" version="1.1">
<g id="surface1">
<path style=" stroke:none;fill-rule:nonzero;fill:rgb(27.843139%,29.411766%,31.764707%);fill-opacity:1;" d="M 14.738281 0.894531 C 15.660156 1.691406 16.265625 2.578125 16.644531 3.753906 C 16.671875 4.121094 16.691406 4.492188 16.699219 4.863281 C 16.738281 5.535156 16.769531 5.84375 17.203125 6.351562 C 17.5 6.601562 17.796875 6.84375 18.101562 7.082031 C 19.089844 7.964844 19.820312 9.242188 20.011719 10.589844 C 20.023438 10.796875 20.03125 11.007812 20.039062 11.222656 C 20.222656 11.238281 20.40625 11.257812 20.597656 11.277344 C 21.882812 11.570312 22.699219 12.308594 23.433594 13.417969 C 24.070312 14.800781 24.109375 16.4375 23.710938 17.910156 C 23.128906 19.230469 22.191406 20.066406 20.902344 20.625 C 19.789062 21.011719 18.847656 20.996094 17.746094 20.597656 C 16.742188 20.304688 16.140625 20.75 15.269531 21.257812 C 13.316406 22.316406 11.261719 22.089844 9.203125 21.53125 C 8.640625 21.34375 8.183594 21.121094 7.671875 20.816406 C 7.007812 20.441406 6.9375 20.4375 6.136719 20.613281 C 5.894531 20.703125 5.65625 20.792969 5.40625 20.886719 C 4.070312 21.042969 2.960938 20.683594 1.800781 20.007812 C 0.792969 19.101562 0.179688 18.089844 0.0351562 16.703125 C 0.015625 15.003906 0.09375 13.6875 1.261719 12.421875 C 2.144531 11.621094 2.753906 11.222656 3.921875 11.222656 C 3.925781 11.015625 3.929688 10.8125 3.933594 10.601562 C 4.125 9.230469 5 7.785156 6.03125 6.917969 C 6.164062 6.824219 6.292969 6.730469 6.425781 6.636719 C 6.980469 6.199219 7.09375 5.996094 7.261719 5.28125 C 7.324219 4.777344 7.382812 4.269531 7.433594 3.765625 C 7.625 2.398438 8.472656 1.566406 9.46875 0.734375 C 11.039062 -0.378906 13.195312 -0.144531 14.738281 0.894531 Z M 9.53125 2.082031 C 8.617188 3.179688 8.285156 4.03125 8.324219 5.457031 C 8.4375 6.542969 8.875 7.132812 9.621094 7.871094 C 10.734375 8.699219 11.4375 8.902344 12.785156 8.703125 C 13.960938 8.40625 14.703125 7.609375 15.375 6.609375 C 15.710938 5.558594 15.804688 4.523438 15.394531 3.484375 C 14.839844 2.5 14.253906 1.84375 13.253906 1.335938 C 11.878906 0.992188 10.628906 1.054688 9.53125 2.082031 Z M 7.527344 7.046875 C 6.414062 8.078125 5.589844 9.140625 4.984375 10.5625 C 4.984375 10.707031 4.984375 10.851562 4.984375 11 C 5.121094 11.050781 5.257812 11.101562 5.402344 11.15625 C 6.859375 11.71875 7.941406 12.214844 8.761719 13.652344 C 9.363281 15.195312 9.382812 16.507812 8.773438 18.058594 C 8.535156 18.589844 8.261719 19.082031 7.953125 19.566406 C 9.773438 20.699219 11.523438 21.144531 13.636719 20.734375 C 14.523438 20.492188 15.238281 20.078125 16.011719 19.566406 C 15.898438 19.371094 15.898438 19.371094 15.785156 19.167969 C 15.640625 18.902344 15.640625 18.902344 15.492188 18.632812 C 15.398438 18.460938 15.300781 18.289062 15.203125 18.109375 C 14.675781 17.03125 14.5625 15.917969 14.84375 14.730469 C 15.273438 13.410156 15.875 12.445312 17.058594 11.714844 C 17.691406 11.445312 18.324219 11.210938 18.980469 11 C 18.574219 9.328125 17.570312 8.035156 16.222656 7.046875 C 16.078125 7.28125 15.933594 7.519531 15.785156 7.761719 C 15.109375 8.746094 14.355469 9.191406 13.265625 9.628906 C 11.855469 9.804688 10.695312 9.730469 9.4375 9.023438 C 8.851562 8.488281 8.851562 8.488281 8.375 7.925781 C 8.214844 7.757812 8.050781 7.589844 7.886719 7.417969 C 7.765625 7.296875 7.648438 7.171875 7.527344 7.046875 Z M 2.28125 13.128906 C 1.300781 14.289062 1.089844 14.996094 1.105469 16.546875 C 1.21875 17.703125 1.835938 18.277344 2.582031 19.085938 C 3.59375 19.777344 4.457031 19.910156 5.648438 19.714844 C 6.710938 19.390625 7.3125 18.792969 7.925781 17.851562 C 8.4375 16.820312 8.4375 15.949219 8.230469 14.804688 C 7.777344 13.621094 7.175781 12.839844 6.042969 12.320312 C 4.617188 11.957031 3.394531 12.003906 2.28125 13.128906 Z M 16.910156 12.9375 C 15.992188 13.863281 15.671875 14.6875 15.574219 15.992188 C 15.601562 17.085938 16.050781 17.820312 16.710938 18.632812 C 17.652344 19.449219 18.351562 19.855469 19.589844 19.816406 C 20.816406 19.644531 21.585938 18.996094 22.371094 18.03125 C 22.996094 17.003906 22.921875 15.90625 22.796875 14.734375 C 22.523438 13.8125 22.03125 13.191406 21.246094 12.675781 C 19.726562 11.898438 18.332031 11.964844 16.910156 12.9375 Z M 16.910156 12.9375 "/>
<path style=" stroke:none;fill-rule:nonzero;fill:rgb(27.843139%,29.411766%,31.764707%);fill-opacity:1;" d="M 20.039062 13.417969 C 20.570312 13.851562 20.929688 14.378906 21.3125 14.957031 C 21.472656 15.179688 21.472656 15.179688 21.632812 15.410156 C 22.199219 16.257812 22.199219 16.257812 22.371094 16.710938 C 22.300781 17.074219 22.234375 17.4375 22.160156 17.8125 C 20.269531 17.8125 18.382812 17.8125 16.433594 17.8125 C 16.210938 16.648438 16.265625 16.472656 16.863281 15.535156 C 16.953125 15.398438 17.042969 15.261719 17.136719 15.121094 C 17.226562 14.980469 17.3125 14.839844 17.40625 14.695312 C 18.179688 13.492188 18.617188 13.222656 20.039062 13.417969 Z M 18.980469 14.515625 C 18.765625 14.839844 18.554688 15.164062 18.34375 15.492188 C 18.226562 15.671875 18.105469 15.851562 17.984375 16.039062 C 17.6875 16.433594 17.6875 16.433594 17.707031 16.710938 C 18.757812 16.710938 19.804688 16.710938 20.886719 16.710938 C 20.730469 16.390625 20.574219 16.070312 20.410156 15.738281 C 20.320312 15.558594 20.234375 15.375 20.140625 15.1875 C 19.863281 14.699219 19.863281 14.699219 19.367188 14.5625 C 19.238281 14.546875 19.109375 14.53125 18.980469 14.515625 Z M 18.980469 14.515625 "/>
<path style=" stroke:none;fill-rule:nonzero;fill:rgb(27.843139%,29.411766%,31.764707%);fill-opacity:1;" d="M 4.71875 13.28125 C 5.394531 13.277344 5.613281 13.410156 6.152344 13.859375 C 6.628906 14.355469 7.085938 14.863281 7.527344 15.394531 C 7.429688 15.742188 7.332031 16.089844 7.234375 16.4375 C 7.15625 16.726562 7.15625 16.726562 7.070312 17.023438 C 6.90625 17.539062 6.714844 17.996094 6.46875 18.46875 C 3.539062 18.660156 3.539062 18.660156 2.570312 17.921875 C 2.386719 17.738281 2.203125 17.558594 2.011719 17.371094 C 2.089844 16.011719 2.179688 14.820312 2.863281 13.636719 C 3.464844 13.371094 4.066406 13.394531 4.71875 13.28125 Z M 3.5 14.734375 C 3.328125 15.199219 3.328125 15.199219 3.246094 15.738281 C 3.210938 15.917969 3.179688 16.101562 3.144531 16.289062 C 3.121094 16.429688 3.097656 16.566406 3.074219 16.710938 C 3.488281 17.164062 3.800781 17.359375 4.402344 17.414062 C 4.878906 17.414062 5.355469 17.398438 5.832031 17.371094 C 5.972656 16.792969 6.109375 16.210938 6.253906 15.613281 C 6.0625 15.433594 5.871094 15.25 5.671875 15.066406 C 5.507812 14.910156 5.507812 14.910156 5.34375 14.757812 C 4.707031 14.332031 4.175781 14.5 3.5 14.734375 Z M 3.5 14.734375 "/>
<path style=" stroke:none;fill-rule:nonzero;fill:rgb(28.235295%,29.411766%,31.764707%);fill-opacity:1;" d="M 11.769531 1.996094 C 12.484375 2.304688 12.839844 2.652344 13.292969 3.300781 C 13.402344 3.449219 13.507812 3.601562 13.621094 3.757812 C 14.164062 4.632812 14.277344 5.59375 14.101562 6.609375 C 13.484375 7.402344 13.019531 7.878906 12.035156 7.996094 C 11.171875 7.910156 10.742188 7.597656 10.074219 7.046875 C 9.726562 6.332031 9.746094 5.625 9.859375 4.851562 C 10.296875 3.742188 10.882812 2.777344 11.769531 1.996094 Z M 11.769531 3.753906 C 11.289062 4.378906 10.957031 4.867188 10.816406 5.660156 C 10.886719 6.195312 10.886719 6.195312 11.277344 6.59375 C 11.773438 6.894531 11.773438 6.894531 12.339844 6.664062 C 12.808594 6.429688 12.808594 6.429688 13.042969 6.167969 C 12.96875 5.179688 12.882812 4.46875 12.191406 3.753906 C 12.054688 3.753906 11.914062 3.753906 11.769531 3.753906 Z M 11.769531 3.753906 "/>
</g>
</svg>
