<svg xmlns="http://www.w3.org/2000/svg" fill="none" viewBox="1.3 1 22 22">
<path fill-rule="evenodd" clip-rule="evenodd" d="M12.3 3C7.32945 3 3.30001 7.02944 3.30001 12C3.30001 16.9706 7.32945 21 12.3 21C17.2706 21 21.3 16.9706 21.3 12C21.3 7.02944 17.2706 3 12.3 3ZM1.30001 12C1.30001 5.92487 6.22488 1 12.3 1C18.3751 1 23.3 5.92487 23.3 12C23.3 18.0751 18.3751 23 12.3 23C6.22488 23 1.30001 18.0751 1.30001 12Z" fill="#484C52"/>
<path fill-rule="evenodd" clip-rule="evenodd" d="M12.3 5C12.8523 5 13.3 5.44772 13.3 6V11.382L16.7472 13.1056C17.2412 13.3526 17.4414 13.9532 17.1944 14.4472C16.9474 14.9412 16.3468 15.1414 15.8528 14.8944L11.8528 12.8944C11.514 12.725 11.3 12.3788 11.3 12V6C11.3 5.44772 11.7477 5 12.3 5Z" fill="#484C52"/>
</svg>